<svg id="Layer_1" data-name="Layer 1" xmlns="http://www.w3.org/2000/svg" viewBox="0 0 59.45 59.45"><defs><style>.cls-1{fill:#1d1d1b;}</style></defs><title>logo</title><path class="cls-1" d="M71.3,89.17l.08,0,0,.16,0,0Zm48.45-24,0-.09-.26-1c-.14-.23-.25-.33-.31-.3a.19.19,0,0,0-.07.06c.25.58.47,1.17.68,1.77,0-.16,0-.26,0-.29s0,0,.07,0a.37.37,0,0,1,.11-.11l0,0Q119.89,65.11,119.75,65.17ZM70.66,87.92Zm23.48-43.2a29.71,29.71,0,0,0-24,47.19.29.29,0,0,0,.11-.27,14.86,14.86,0,0,1,.24-2.3,11.67,11.67,0,0,1,.15-1.52,27.07,27.07,0,1,1,47.49-26l.07,0a1.27,1.27,0,0,1,1.26,0,1.67,1.67,0,0,1,1.62,1q.19.53.15.54l.09.07,0,.09c.55,2,.89,3.09,1,3.33a18,18,0,0,0,.67,2.53,1.62,1.62,0,0,0,0,.64,1.74,1.74,0,0,1-1.26-.06.68.68,0,0,1-.92-.2,26.56,26.56,0,0,1,.43,4.75,27.07,27.07,0,0,1-49,15.89c0,.24-.11.38-.19.42l.07.15A6.73,6.73,0,0,1,72,92.11a.64.64,0,0,1-.07.42,3,3,0,0,1-.71-.18l-.11.05,0-.07,0-.25-.11,0c-.05,0-.05.07,0,.15l-.11,0a.27.27,0,0,0-.2-.12.24.24,0,0,0,0-.14h0a.29.29,0,0,1-.14.13h-.16A29.72,29.72,0,1,0,94.14,44.72ZM71,89.74h0a1,1,0,0,1,0-.59L71,89l0,0-.11.15a.09.09,0,0,0-.12,0l-.13.39.11.23A.35.35,0,0,1,71,89.74Zm49.5-21.55h0Zm-.62-2.79a.86.86,0,0,0,.06.47l-.08,0q.24.75.45,1.5c0-.38-.09-.88-.14-1.53a.1.1,0,0,1-.14,0l0-.41Zm-14.51-3.18.07.14a.2.2,0,0,1,.1-.09l0-.11Zm.34.23a.08.08,0,0,0,0,.11l0,0a.29.29,0,0,1,.08-.08l0-.08Zm0-.67s-.08.1-.19.15l0,.07.24-.07s0,0,0-.06A.3.3,0,0,1,105.67,61.78Zm-1,1.53s.06,0,.16,0l.07-.2-.06-.11A.54.54,0,0,1,104.68,63.31Zm-.63,1h0l0,.2c.05,0,.05-.07,0-.14Zm1.86-3.82,0,.07.11,0a.57.57,0,0,0,.09-.36l-.14.07C106,60.4,106,60.49,105.91,60.51Zm-.68,2.08-.08,0,0,.1a.07.07,0,0,0,0-.11Zm5.15,4.47a.1.1,0,0,0-.14,0v.11Zm-6.47-2.93,0,0s-.06.07-.07.15l.08,0s.06-.05,0-.1Zm3.06-6.6a.09.09,0,0,0,0,.11h.14l-.06-.12Zm2.28,10.82,0,0c-.16.11-.23.2-.19.27l.17-.09C109.27,68.45,109.28,68.41,109.25,68.35Zm-2.69-9.45a.1.1,0,0,1-.11,0v-.1l-.08,0c0,.05,0,.22-.19.5l-.05,0v0a.65.65,0,0,0,0-.57s0,0,0,0l-.06.07,0,.11c0,.06,0,.17-.19.32a8.07,8.07,0,0,1-.52,1.33l0,0,.18-.09a.52.52,0,0,1,.21-.37c0-.16,0-.25.1-.27a2,2,0,0,1,.15-.44h.08c-.11.45-.18.68-.23.7,0,.22-.06.34-.14.38s0,.14-.05.25l0,0-.13.11,0,.08.07,0a.07.07,0,0,0,0-.11l0,0,.07,0a.07.07,0,0,0,0-.1c.06,0,.09,0,.11,0v.09a14.27,14.27,0,0,1-1.07,2h0l0-.08c.09,0,.15-.17.16-.38l0,0-.07,0-.36.63v0l.13.06,0,0s-.07.18-.27.48c0,0,.07.07.12,0a.32.32,0,0,0,0,.22s-.07,0-.11-.05v-.08s0,0-.06,0-.16.27-.4.47l0-.21,0,0a7.23,7.23,0,0,0-.68,1.09.07.07,0,0,1-.1,0l0,0c0-.11,0-.17,0-.18l.05-1.11.32-3.2a1.3,1.3,0,0,0,0-.94l-.07-.15-.59-.65-.06-.14q-.08-.13,1.14-1c.82-.34,1.25-.47,1.28-.4.66-.19,1-.17,1.16.07,0,0,0,.11,0,.23l.07.14.09-.09h.09a.39.39,0,0,0,0,.13.49.49,0,0,1-.25,0,.52.52,0,0,0-.09.49c.08.05.13.07.17.06l0,0,.08-.12.06,0,0,0a2.33,2.33,0,0,1-.14.64l.08.06Zm-2.86,4.79,0,0,0,0c-.05,0-.06.06-.05.12l0,0,0,0S103.72,63.74,103.7,63.69Zm.79-.39,0,0-.06-.06a.42.42,0,0,0-.2.23l.07.06A.38.38,0,0,1,104.49,63.3Zm.36-1.39v0l-.08-.05a2.72,2.72,0,0,1-.47.68,2.34,2.34,0,0,1-.58,1c0,.05.06.06.12,0a.32.32,0,0,1,.14-.16,1.54,1.54,0,0,1,.31-.46A11.27,11.27,0,0,1,104.85,61.91Zm.39-.09v0l0,0q-.1.22-.15.24l.08.06A.42.42,0,0,0,105.24,61.82Zm.11-.23,0,0,0,0a.07.07,0,0,0,0-.1l0,0,0,0A.09.09,0,0,0,105.35,61.59Zm1-3,0,0,0,0a.09.09,0,0,0,0,.11l0,0,0,0C106.32,58.65,106.33,58.61,106.31,58.57Zm.39.07v-.08l-.1,0A.07.07,0,0,0,106.7,58.64Zm0,.17a1.4,1.4,0,0,0-.12.41l0,.08,0,0a1.46,1.46,0,0,0,.19-.45l0-.07Zm.27-.72-.22,0s0,0,0,0,.16.14.23.11A.19.19,0,0,0,107,58ZM101.66,73l-.74,4.57a2.62,2.62,0,0,0-.07.57l0,.06c1-.83,2.07-2.58,3.3-5.27a12.79,12.79,0,0,0,.89-2.76L105,70c-.07,0-.16,0-.26-.06a.52.52,0,0,1-.44,0l0-.06a1.29,1.29,0,0,0,.37,0l0-.07s-.15,0-.29,0l-1.29,0a1.83,1.83,0,0,0-.73.13A17.71,17.71,0,0,0,101.66,73ZM84.08,79.55c0-.06-.07-.07-.13,0s0,.1-.09.14l0,0,.08,0A.36.36,0,0,1,84.08,79.55Zm.12.91a.57.57,0,0,1-.28.08v.1l0,0c0,.06.09.07.14,0S84.22,80.49,84.2,80.46ZM83.68,80l0,.09.12-.06,0-.09Zm-.34,2.35.07.13.07,0-.06-.12Zm1.25-2.68c0-.06-.07-.08-.13-.05v.11Zm-1.12,1.29,0,0c-.16.1-.22.19-.19.26l.17-.08A.1.1,0,0,0,83.47,80.91Zm3,.73a1,1,0,0,1,0-.7h-.1a1.93,1.93,0,0,0,0-.37l0,0h.1v-.21l-.09-.07a1.3,1.3,0,0,1,.08-.62.28.28,0,0,1-.11-.11c.06,0,.07-.08,0-.17l-.07-.13a.26.26,0,0,0,.14-.28l0,0s-.13-.06-.34-.05l0,0-.6.83a17.69,17.69,0,0,0-1,2.11l-.19.79a2.88,2.88,0,0,0-.18,1.74c.05.21.14.55.29,1a.62.62,0,0,0,.47.42,2.78,2.78,0,0,0,1.7-2.11A8.63,8.63,0,0,1,86.43,82C86.34,81.81,86.36,81.69,86.47,81.64ZM101,58.82a.08.08,0,0,0,0,.11l0,0c.05,0,.07-.07,0-.12ZM89.64,84.4l.09.17s.06-.06,0-.12S89.7,84.37,89.64,84.4Zm10.8-15.63,0,0c.08-.07.1-.13.09-.17l-.07,0A.09.09,0,0,0,100.44,68.77Zm8.69,1,.06.13.08,0-.06-.13Zm-4.22.22s-.07-.06-.16-.07l0,0,0,.06.05,0A.23.23,0,0,0,104.91,70Zm-1.55-4.4a.26.26,0,0,1-.1.09l.09.18.12,0-.06-.2A0,0,0,0,1,103.36,65.56Zm-3.93-4a.07.07,0,0,0,0,.1l0,0,0,0a.41.41,0,0,1,.1-.09l0-.06Zm4.28,2.78-.37.55,0,0,0,0a.93.93,0,0,0,.4-.56l0,0ZM81.23,89.13v0l.21.14.19-.18a.87.87,0,0,1-.23-.19l-.08,0a.25.25,0,0,1,0,.13h-.13Zm28.24-21.74,0,.09.12-.06,0-.09Zm-34,7.11c.32-.4.46-.67.4-.81l.19-.1.27-.41.07.16a.48.48,0,0,0,0,.35l-.33.5-.21,0c-.05.08-.07.14-.05.18l.08.18.15-.07.06-.07s0,0,.06,0l.07,0a1.61,1.61,0,0,0,.59-.8s0,0,.07,0c.11.3.1.47,0,.53s0,0-.07,0,0,0,0,.11a.36.36,0,0,0,.11.13.52.52,0,0,0,0,.23l-.22.11-.1-.27a6.84,6.84,0,0,0-.92,1.39l-.11,0,0,0,.09-.41,0,.07.08,0,0,0q0-.09-.15,0v0l0,0,.21-.06a.64.64,0,0,0,.1-.29l-.07-.05s.06-.06,0-.11l0,0h0a.29.29,0,0,0-.13.11l0,0c-.06-.13,0-.22.07-.27l0-.07-.11.06Zm.44.25.08.06c.06,0,.07-.07,0-.12v0l0,0Zm.47.07.11-.06,0-.08-.11.06Zm-1.92,1.11a.22.22,0,0,1,.12.13.26.26,0,0,1,.1-.09l.28-.1a.64.64,0,0,1,.19-.18l.21-.06s0-.09.06-.16l-.09-.1,0,0,0,0,0,.07.08,0-.14-.08.16-.17,0-.07a.24.24,0,0,1-.15-.12l0,0a2.62,2.62,0,0,0-.35.55h-.09C74.8,75.57,74.69,75.72,74.41,75.93Zm5.66,11,0-.08-.07,0,.07.14A.06.06,0,0,0,80.07,87Zm-.22,1a.71.71,0,0,0,.2-.18.55.55,0,0,1-.21-.23,0,0,0,0,0,0-.06h-.11l-.22.11,0,0,.13.08s0,0,0,0C79.77,87.91,79.83,88,79.85,88Zm1.34,1.09V89h-.14l0,0A.08.08,0,0,0,81.19,89.05Zm-1.67-1.2a1.32,1.32,0,0,0,.28.28l0,0,0-.06-.09-.1s0,0,0-.06l-.07,0,0-.07v-.09l-.11,0ZM75.27,75.93a.35.35,0,0,1-.15.18l0,.11a.65.65,0,0,1,.21-.24l0-.08ZM74,76.78a1.14,1.14,0,0,0-.45.73c.11-.05.18-.05.2,0s0,.07-.06.16l0,0,.11-.06a3.31,3.31,0,0,0,.37-.69l0,0,0-.08Zm-.3,1.6s-.06.08,0,.12v0l0,0s0-.06,0-.11l0,0Zm3.67-5.6,0,0s-.06.08,0,.12l0,0A.09.09,0,0,0,77.4,72.78Zm-3.35,5.11c-.14.21-.2.34-.18.38l0,0,.07,0c.15-.2.21-.34.17-.42Zm.11,0,.56-.78c0-.06-.07-.06-.15,0l-.44.74Zm5.42,9a.08.08,0,0,0,0,.11,8.24,8.24,0,0,1,.85.76h0v0a1.19,1.19,0,0,0-.45-.44A1.72,1.72,0,0,0,79.58,86.83Zm-5.22-8.71s0-.07.06-.17l0,0c-.08.09-.11.15-.09.19Zm.5-1.47h0a.36.36,0,0,1,.09-.09l0,0-.14.07Zm-.35.83s.07.07.12,0h0c0-.06-.06-.07-.1-.05Zm1.3-1.81v0a.07.07,0,0,0,0-.1l0,0A.07.07,0,0,0,75.81,75.67ZM109.86,67s-.06-.06-.12,0,0,.1-.09.14l0,0,.08,0A.69.69,0,0,1,109.86,67ZM73.11,79.62l0,0a.38.38,0,0,1-.16.17l0,0,.19-.1A.39.39,0,0,1,73.11,79.62ZM110,67.89a.58.58,0,0,1-.28.09v.1l0,0c0,.06.09.07.13,0S110,67.93,110,67.89Zm2.28,1.18a.94.94,0,0,1,0-.69h-.09a1.09,1.09,0,0,0,0-.36l0,0h.1v-.21l-.09-.07a1.4,1.4,0,0,1,.07-.63c-.05,0-.09-.07-.1-.1s.07-.09,0-.17l-.07-.13a.26.26,0,0,0,.13-.28l0,0s-.13,0-.34,0l0,0-.61.83a17.24,17.24,0,0,0-.94,2.12l-.2.78a3,3,0,0,0-.17,1.75c0,.21.14.55.28,1,.13.26.29.4.47.42a2.77,2.77,0,0,0,1.7-2.11,10.22,10.22,0,0,1-.15-1.73C112.13,69.24,112.15,69.13,112.26,69.07ZM79.09,85.89a.41.41,0,0,0,0-.17.4.4,0,0,1-.26,0l0,0-.08.12s-.06-.05-.11,0l-.08,0a.89.89,0,0,0,.53.4l-.1-.19.22.07h0c-.06-.12-.06-.2,0-.22Zm36.34-14,.08.17c.06,0,.07-.07,0-.12S115.48,71.81,115.43,71.84Zm-37.77,14,0,0a.24.24,0,0,1,0-.13h-.14l0,.05A.2.2,0,0,1,77.66,85.89Zm-.13.1v0c-.11-.15-.19-.21-.23-.19l0,0,.14.21Zm41-17.11a25.47,25.47,0,0,1,.63,5.56,25.06,25.06,0,0,1-46.84,12.4c0-1.28.07-1.94.09-2a3,3,0,0,1,0-1.27c0-.76,0-1.17.15-1.25h0s.16,0,.39.19,1.17.9,2.46,2a2.3,2.3,0,0,1,.6.46,3.36,3.36,0,0,1,.58.61,5.52,5.52,0,0,1,1.56,1.35s.11,0,.24.13a.31.31,0,0,1,0,.13.08.08,0,0,0,.11,0q.58.69.75.66l0,.21c.1.14.2.18.3.14l0,0v.09h.09a3.25,3.25,0,0,0,.78.61,5.4,5.4,0,0,0,1.31,1.15s.06,0,.1-.1.11,0,.21.14l0-.07-.53-.5v0l.14,0,0,0,0-.07c.09,0,.31.14.68.52v0l0,0c0-.08-.08-.11-.13-.08l-.08,0a.41.41,0,0,0,.09.1l.05.18s.06.06.12,0l.11-.06-.08-.16c.11.1.41.08.88,0l.05-.07.08,0,0-.06a.66.66,0,0,0,.33,0l-.15-.31s0-.11.13-.21a.81.81,0,0,0-.49-.41,3.3,3.3,0,0,0-.79-.66,2.59,2.59,0,0,0-1.5-1,4,4,0,0,0-.88-.75c-.42-.52-.69-.75-.8-.69a.18.18,0,0,1,0-.13,1.92,1.92,0,0,0-.76-.57.3.3,0,0,1,0-.15,6.79,6.79,0,0,0-.91-.72s0-.05,0-.06a2.48,2.48,0,0,1-.66-.66c-.37-.29-.59-.42-.65-.39l-.07-.16-.92-.82a25.47,25.47,0,0,1-2-1.65c0-.17.06-.27.1-.28l.18-.09c-.06-.13,0-.28.16-.46t.12-.24c.26-.37.38-.58.35-.64s.06,0,.13,0a.11.11,0,0,0,.06-.17,6.82,6.82,0,0,0,.5-1.1q.59-.65.51-.81a2.79,2.79,0,0,0,.58-.9,3.49,3.49,0,0,0,.73-1.34l.2,0c0-.05.09-.19.3-.44l0,0a4.08,4.08,0,0,0,1.14-1.36,8.72,8.72,0,0,0,1.32-2l0-.12a4,4,0,0,0-1.3-.82.91.91,0,0,0-.54.54,14.89,14.89,0,0,0-1.2,1.77l0,.11.18-.09.07-.07a.07.07,0,0,0,.11,0l.12-.06a.38.38,0,0,0-.09-.09l0,0,0,0,.15,0,.17-.23h0a.35.35,0,0,1-.2.33c-.09.18-.26.46-.52.86l-.12.06a.18.18,0,0,0-.1-.09l-.18.12,0-.11c0-.07-.08-.1-.12-.08l-.12.06a1.53,1.53,0,0,0-.37.7l-.13,0a.93.93,0,0,0-.26.54s0,0,0,0a.57.57,0,0,0-.2.24h-.1a1.24,1.24,0,0,1-.32.49,1.57,1.57,0,0,1-.09.43h-.14s0,0,0,.13l-.14,0c-.06.08-.08.13-.06.17l.06,0s0,.05,0,.1l-.15,0,0,0c.09.18,0,.37-.25.56a7.38,7.38,0,0,1-.68,1.22,2.51,2.51,0,0,1-.9,1l-.08-5.7a.48.48,0,0,0-.36-.24,3.4,3.4,0,0,0-1.28-.28.55.55,0,0,1-.18.19q-.42.2,0,3.57c0,.58,0,1.85.08,3.83l.07,0c0,.19,0,.29,0,.3a12.06,12.06,0,0,1,0,1.31c-.13.19-.24.37-.34.54A25.06,25.06,0,0,1,116.43,63l-1.2,0-.22.11-.12.34a10.47,10.47,0,0,1,.32,1.92l.09.07c.1.59.3,1.51.6,2.74l.09.06a.53.53,0,0,0,.07.25,16.28,16.28,0,0,0,.36,2.24.26.26,0,0,0,.4.14.66.66,0,0,0,.7,0,2,2,0,0,0,1.15.4.78.78,0,0,0,0-.47,1.64,1.64,0,0,0-.18-.25c.09-.05.13-.09.11-.12a2.81,2.81,0,0,0-.12-1C118.54,69.38,118.56,69.14,118.57,68.88ZM76.73,72.36s-.06-.06-.12,0-.21.25-.2.28l0,.08,0,0C76.67,72.49,76.75,72.39,76.73,72.36Zm5.53,17.55a.75.75,0,0,0-.21-.24s0,.06,0,.12a.28.28,0,0,1,.16.16Zm7.93-5.45a2.22,2.22,0,0,1-.69-.35l0,0s0-.16.17-.4c-.23,0-.36-.06-.37-.09s-.18.17-.15.24H89L89,83.56l-.41.26,0,0a1.16,1.16,0,0,1-.15-.84l-.09-.07a.5.5,0,0,0,0-.51c0-.53,0-.8,0-.83a4.13,4.13,0,0,1-.07-.88A19.67,19.67,0,0,0,88,78l-.11-.21c-.08-.06-.14-.08-.18-.07l-.08.08c0-.08-.14-.08-.32,0l0-.09v-.31l-.09-.07c-.59-.56-1-.8-1.19-.7A5.49,5.49,0,0,0,84.5,77.8l-.43.85c0,.35-.12.54-.2.58,0,.22,0,.37-.17.44A3.85,3.85,0,0,0,83,81.6a0,0,0,0,1-.05,0,.49.49,0,0,1-.2.25l.09.07a.57.57,0,0,0-.24.16c0,.06.08.07.16,0l.07.12a.3.3,0,0,1-.15,0,1.75,1.75,0,0,0-.18,1c-.16.25-.23.41-.2.47s.07.08.13,0a10.62,10.62,0,0,0,.27,1.09l.12.15a1,1,0,0,1,.09.39.44.44,0,0,1,.12.15l0,0,.09.31h.12a.57.57,0,0,1,0,.16v0a1.76,1.76,0,0,1,.48.3l1.37,1a2.28,2.28,0,0,1,.82-.08.37.37,0,0,0,.15-.13h.22c.11-.06.14-.13.1-.22s0,0,.07,0a3.12,3.12,0,0,1,.41-.47.37.37,0,0,1,.13.15l.13-.06.07-.09a1.37,1.37,0,0,1,.08-.57l.24-.06.17-.09a4.68,4.68,0,0,0,1.09.6.6.6,0,0,0,.17-.2l.19,0-.06-.12a.43.43,0,0,1-.19,0L89,86h.09l.05,0a1.3,1.3,0,0,1,.25-.39.08.08,0,0,0,.12,0l.09,0s.06-.07,0-.13a3.36,3.36,0,0,0,.49-.65.37.37,0,0,0-.11-.11C90,84.59,90.05,84.53,90.19,84.46Zm7-2.58a17.22,17.22,0,0,1-.68-2.54c-.12-.24-.45-1.35-1-3.33l-.05-.09-.09-.07s0-.19-.15-.54a1.67,1.67,0,0,0-1.61-1,1.29,1.29,0,0,0-1.27,0A2.54,2.54,0,0,0,91.2,76.1l0,0a4.46,4.46,0,0,1-.16-.55s0,0-.06,0l-1.49,0-.23.11-.12.34A9.58,9.58,0,0,1,89.42,78l.09.07c.1.6.31,1.51.61,2.74l.09.07a.45.45,0,0,0,.06.25,16.16,16.16,0,0,0,.36,2.23.27.27,0,0,0,.41.14.68.68,0,0,0,.7.06,2,2,0,0,0,1.14.39.78.78,0,0,0,.05-.47,2.46,2.46,0,0,0-.18-.25c.1,0,.13-.08.12-.11a3,3,0,0,0-.13-.95c.05-.62.08-1.53.08-2.73,0-.7,0-1.08.17-1.15L92.88,78c.13-1,.28-1.6.46-1.69s.17.07.32.3l.26,1,0,.09q.14-.06.18,0l0,0a.69.69,0,0,0-.11.12.05.05,0,0,0-.07,0c-.08,0-.07.22,0,.55l0,0,.09,0a.82.82,0,0,1-.07-.48l.18,0,0,.4c0,.06.07.08.13,0a13.89,13.89,0,0,0,.27,2.28s.05,0,.07,0,0,.19-.07.21c.25.77.32,1.19.21,1.24l.09,0a.69.69,0,0,0,1,.3,1.77,1.77,0,0,0,1.27.06A1.53,1.53,0,0,1,97.22,81.88Zm10.6-24.72c-.26-.41-.42-.67-.48-.8-.26-.32-.43-.46-.52-.41a5.54,5.54,0,0,0-.91-.32l0,0a.08.08,0,0,0,0,.11,2.5,2.5,0,0,1-.59.06l-2,.65c-.5.33-.72.54-.67.64a4.42,4.42,0,0,0-.95.91,5,5,0,0,0-.8.92l.09.18c-.23.2-.33.34-.29.41h-.1a2,2,0,0,0-.18.64l0,0-.09,0a.45.45,0,0,0,0,.14l-.13,0-.17.58c-.12.05-.21.05-.27,0s-.06.11,0,.27l.07.06q-.18.18-.15.24l-.23.07a.63.63,0,0,1-.13.29l0,.08.07.05-.07,0s-.08,0-.11,0l0,.07c.09.18,0,.5-.4.95l-.15,0s-.06.06,0,.11.16,0,.18,0l0,.07c-.12.22-.18.35-.16.38s-.11,0-.2-.12,0,.1,0,.25l-.12,0v-.08l-.11,0A6.84,6.84,0,0,0,97.56,65a1.36,1.36,0,0,0,.33.38l.66.53a.38.38,0,0,0,.08-.09,1,1,0,0,0,.31.08l.08,0a17.61,17.61,0,0,1,1-3.34l-.06,0s0,0,0-.09l.48-1.13a.33.33,0,0,0,0-.38s0,0,.06,0l.09-.09h0l0,.13,0,0a.44.44,0,0,0,.16-.12,3.78,3.78,0,0,1,.77-.9s0,0,0,0l0,.17q-.12,1.89-.67,6.15a17.73,17.73,0,0,0-.37,2l-.15.07.07.07,0,0a.76.76,0,0,0-.2.24c-.34.27-.51.42-.49.45h-.27a.08.08,0,0,0,0,.11v0l.09.06a.47.47,0,0,1-.18.17l0,0a.07.07,0,0,1-.1,0c-.33.2-.47.34-.42.43l.16-.12.15-.07,0,0a1.22,1.22,0,0,0-.27.21s0,0-.1,0l-.06,0a.5.5,0,0,0-.19.17l-.16,0-.06.07.08.06a2.25,2.25,0,0,0-.55.62,1.68,1.68,0,0,0-.55.53c-.5.32-.74.53-.7.61l.19.09-.15.07,0,.08c.14-.07.24-.06.28,0a1.06,1.06,0,0,0,.58.54l0,.06s0,.08,0,.11a1.08,1.08,0,0,0,.29.31,3.16,3.16,0,0,0,.45-.39c.92-1.07,1.48-1.71,1.67-1.89l0,0h.09a8.08,8.08,0,0,1-.32,1.91,13.55,13.55,0,0,1-.2,1.35,3.18,3.18,0,0,1,0,.92v0l.07,0,0,0,0,.38a.27.27,0,0,1-.17,0l-.06.08a.31.31,0,0,0,.1.08,9.72,9.72,0,0,0-.38,1.62,2.13,2.13,0,0,0-.12.87l.13.06a1,1,0,0,1-.22.48s0,0,.1,0v.1l-.09,0a8.2,8.2,0,0,0-.34,1.43,1.81,1.81,0,0,0-.2.68v0a.27.27,0,0,0,.23.18,4.13,4.13,0,0,0,1.35.85l.07,0A14.93,14.93,0,0,0,102,80a8.67,8.67,0,0,0,1.44-2l.45-.67H104a1.33,1.33,0,0,0,.14-.38,6.76,6.76,0,0,0,.82-1.52,11,11,0,0,0,.65-1.26,12.86,12.86,0,0,0,1-3.28,1.87,1.87,0,0,0,.08-.84q-.28-.4-.36-.36a1.5,1.5,0,0,0-.74-.68,8.6,8.6,0,0,0-2.26-.33l-.07,0s0,.06,0,.12a2.78,2.78,0,0,0-.8,0,1.79,1.79,0,0,1,.2-1.26,3.59,3.59,0,0,0,.61-.75l-.06-.05a1,1,0,0,0,.48-.56,2.51,2.51,0,0,1,.39-.5,1.73,1.73,0,0,1,.59-.82,4.28,4.28,0,0,1,.56-.94,2.06,2.06,0,0,1,.33-.53c.12-.47.26-.75.44-.83a2.58,2.58,0,0,1,.37-.55,6.19,6.19,0,0,1,.59-1.54,1,1,0,0,1,.13-.46,2,2,0,0,0,.3-.68A7.69,7.69,0,0,0,107.82,57.16ZM116,71.89a1.85,1.85,0,0,1-.69-.35l0,0a1.39,1.39,0,0,1,.17-.41q-.34,0-.36-.09c-.14.1-.19.18-.15.25h-.1l-.06-.24-.41.26,0,0a1.1,1.1,0,0,1-.14-.84l-.09-.07a.58.58,0,0,0,0-.52,4.92,4.92,0,0,0,0-.83,4.5,4.5,0,0,1-.06-.88,19.62,19.62,0,0,0-.2-2.72l-.11-.22c-.09-.06-.15-.08-.19-.06l-.07.08c0-.08-.15-.08-.32,0l0-.09,0-.31-.09-.07c-.59-.57-1-.8-1.2-.7a5.56,5.56,0,0,0-1.44,1.18l-.44.86c0,.34-.11.53-.2.58,0,.22,0,.37-.16.44a3.79,3.79,0,0,0-.66,1.92s0,0,0,0a.69.69,0,0,1-.2.25l.09.07a.71.71,0,0,0-.25.16c0,.06.09.07.17,0l.06.12a.3.3,0,0,1-.15,0c-.19.54-.25.89-.17,1-.17.25-.24.41-.21.47a.09.09,0,0,0,.14,0c.15.68.24,1,.26,1.1l.13.14a1.16,1.16,0,0,1,.08.4.37.37,0,0,1,.13.15l0,0,.1.32h.11a.32.32,0,0,1,0,.16l0,0c.29.15.45.25.47.31l1.38,1a2.49,2.49,0,0,1,.82-.07.47.47,0,0,0,.15-.13h.21c.11-.06.15-.13.11-.22s0,0,.06,0a2.93,2.93,0,0,1,.42-.47.37.37,0,0,1,.13.15l.12-.06.07-.09a1.52,1.52,0,0,1,.09-.58l.23-.06.17-.08a4.88,4.88,0,0,0,1.09.59c.06,0,.11-.09.17-.19l.2,0-.06-.12a.46.46,0,0,1-.2,0l0-.17h.1l0,0a1.25,1.25,0,0,1,.25-.39c0,.06.07.08.12,0l.1,0s.06-.07,0-.13a3,3,0,0,0,.48-.66s0-.06-.1-.1S115.83,72,116,71.89Z" transform="translate(-64.41 -44.72)"/></svg>